<svg xmlns="http://www.w3.org/2000/svg" width="1200" height="900" viewBox="0 0 1200 900">
<defs><linearGradient id="scene" x1="0" y1="0" x2="1" y2="1"><stop stop-color="hsl(123 46% 70%)"/><stop offset=".55" stop-color="hsl(181 42% 78%)"/><stop offset="1" stop-color="hsl(239 50% 85%)"/></linearGradient><radialGradient id="sun"><stop stop-color="#fff" stop-opacity=".85"/><stop offset="1" stop-color="#fff" stop-opacity="0"/></radialGradient></defs>
<rect width="1200" height="900" fill="url(#scene)"/>
<circle cx="623" cy="323" r="260" fill="url(#sun)"/>
<circle cx="1065" cy="189" r="2" fill="#fff" opacity="0.15"/><circle cx="798" cy="210" r="3" fill="#fff" opacity="0.25"/><circle cx="531" cy="231" r="4" fill="#fff" opacity="0.35"/><circle cx="264" cy="252" r="5" fill="#fff" opacity="0.45000000000000007"/><circle cx="1197" cy="273" r="6" fill="#fff" opacity="0.55"/><circle cx="930" cy="294" r="2" fill="#fff" opacity="0.15"/><circle cx="663" cy="315" r="3" fill="#fff" opacity="0.25"/><circle cx="396" cy="336" r="4" fill="#fff" opacity="0.35"/><circle cx="129" cy="357" r="5" fill="#fff" opacity="0.45000000000000007"/><circle cx="1062" cy="378" r="6" fill="#fff" opacity="0.55"/><circle cx="795" cy="399" r="2" fill="#fff" opacity="0.15"/><circle cx="528" cy="420" r="3" fill="#fff" opacity="0.25"/><circle cx="261" cy="441" r="4" fill="#fff" opacity="0.35"/><circle cx="1194" cy="462" r="5" fill="#fff" opacity="0.45000000000000007"/><circle cx="927" cy="483" r="6" fill="#fff" opacity="0.55"/><circle cx="660" cy="504" r="2" fill="#fff" opacity="0.15"/><circle cx="393" cy="525" r="3" fill="#fff" opacity="0.25"/><circle cx="126" cy="546" r="4" fill="#fff" opacity="0.35"/><circle cx="1059" cy="567" r="5" fill="#fff" opacity="0.45000000000000007"/><circle cx="792" cy="588" r="6" fill="#fff" opacity="0.55"/><circle cx="525" cy="609" r="2" fill="#fff" opacity="0.15"/><circle cx="258" cy="630" r="3" fill="#fff" opacity="0.25"/><circle cx="1191" cy="651" r="4" fill="#fff" opacity="0.35"/><circle cx="924" cy="672" r="5" fill="#fff" opacity="0.45000000000000007"/><circle cx="657" cy="693" r="6" fill="#fff" opacity="0.55"/><circle cx="390" cy="714" r="2" fill="#fff" opacity="0.15"/><circle cx="123" cy="735" r="3" fill="#fff" opacity="0.25"/><circle cx="1056" cy="756" r="4" fill="#fff" opacity="0.35"/>
<path d="M590 900V470" stroke="rgba(70,91,73,.65)" stroke-width="24"/><path d="M600 520c-220-30-260-220-100-290 75 35 112 103 100 290zM600 520c220-30 260-220 100-290-75 35-112 103-100 290z" fill="rgba(242,211,226,.78)"/>
</svg>