<svg xmlns="http://www.w3.org/2000/svg" width="768" height="768" viewBox="0 0 512 512">
<defs>
  <radialGradient id="bg"><stop stop-color="hsl(271 52% 82%)"/><stop offset="1" stop-color="hsl(330 47% 32%)"/></radialGradient>
  <linearGradient id="petal" x1="0" y1="0" x2="1" y2="1"><stop stop-color="#fff8ed"/><stop offset=".47" stop-color="hsl(271 68% 70%)"/><stop offset="1" stop-color="hsl(330 68% 48%)"/></linearGradient>
  <linearGradient id="gold"><stop stop-color="#fff0b5"/><stop offset=".48" stop-color="#c69043"/><stop offset="1" stop-color="#f6df9b"/></linearGradient>
  <filter id="glow"><feGaussianBlur stdDeviation="7" result="b"/><feMerge><feMergeNode in="b"/><feMergeNode in="SourceGraphic"/></feMerge></filter>
</defs>
<rect width="512" height="512" rx="256" fill="url(#bg)"/>
<circle cx="256" cy="256" r="225" fill="none" stroke="rgba(255,255,255,.72)" stroke-width="9"/>
<circle cx="256" cy="256" r="205" fill="rgba(28,24,54,.13)" stroke="url(#gold)" stroke-width="12"/>
<path d="M256 256 C229 205 239 128 256 128 C273 128 283 205 256 256Z" transform="rotate(0 256 256)" fill="url(#petal)" opacity="0.50"/><path d="M256 256 C229 205 239 140 256 140 C273 140 283 205 256 256Z" transform="rotate(45 256 256)" fill="url(#petal)" opacity="0.62"/><path d="M256 256 C229 205 239 130 256 130 C273 130 283 205 256 256Z" transform="rotate(90 256 256)" fill="url(#petal)" opacity="0.74"/><path d="M256 256 C229 205 239 141 256 141 C273 141 283 205 256 256Z" transform="rotate(135 256 256)" fill="url(#petal)" opacity="0.50"/><path d="M256 256 C229 205 239 146 256 146 C273 146 283 205 256 256Z" transform="rotate(180 256 256)" fill="url(#petal)" opacity="0.62"/><path d="M256 256 C229 205 239 149 256 149 C273 149 283 205 256 256Z" transform="rotate(225 256 256)" fill="url(#petal)" opacity="0.74"/><path d="M256 256 C229 205 239 150 256 150 C273 150 283 205 256 256Z" transform="rotate(270 256 256)" fill="url(#petal)" opacity="0.50"/><path d="M256 256 C229 205 239 135 256 135 C273 135 283 205 256 256Z" transform="rotate(315 256 256)" fill="url(#petal)" opacity="0.62"/>
<g fill="none" stroke="url(#gold)" stroke-width="12" stroke-linecap="round" stroke-linejoin="round" filter="url(#glow)"><path d="M177 285c49-11 74-56 79-119 5 63 30 108 79 119-34 7-58 26-79 65-21-39-45-58-79-65z"/><circle cx="256" cy="273" r="25"/></g>
<circle cx="256" cy="256" r="27" fill="#fff8df" stroke="url(#gold)" stroke-width="9"/>
<circle cx="256" cy="256" r="13" fill="hsl(330 70% 62%)"/>
</svg>