<svg xmlns="http://www.w3.org/2000/svg" width="1600" height="1000" viewBox="0 0 1600 1000">
<defs>
<linearGradient id="atmosphere" x1="0" y1="0" x2="1" y2="1"><stop stop-color="#8a749d"/><stop offset=".52" stop-color="#c58c9e"/><stop offset="1" stop-color="#d9c79b"/></linearGradient>
<radialGradient id="light"><stop stop-color="#fff" stop-opacity=".55"/><stop offset="1" stop-color="#fff" stop-opacity="0"/></radialGradient>
<filter id="soft"><feGaussianBlur stdDeviation="16"/></filter>
</defs>
<rect width="1600" height="1000" fill="url(#atmosphere)"/>
<circle cx="527" cy="387" r="390" fill="url(#light)" filter="url(#soft)"/>
<ellipse cx="121" cy="13" rx="185" ry="52" fill="rgba(255,255,255,0.04)" transform="rotate(0 121 13)"/><ellipse cx="824" cy="14" rx="147" ry="41" fill="rgba(255,255,255,0.065)" transform="rotate(17 824 14)"/><ellipse cx="1527" cy="15" rx="128" ry="36" fill="rgba(255,255,255,0.09)" transform="rotate(34 1527 15)"/><ellipse cx="630" cy="16" rx="119" ry="33" fill="rgba(255,255,255,0.11500000000000002)" transform="rotate(51 630 16)"/><ellipse cx="1333" cy="17" rx="178" ry="50" fill="rgba(255,255,255,0.14)" transform="rotate(68 1333 17)"/><ellipse cx="436" cy="18" rx="144" ry="40" fill="rgba(255,255,255,0.04)" transform="rotate(85 436 18)"/><ellipse cx="1139" cy="19" rx="127" ry="36" fill="rgba(255,255,255,0.065)" transform="rotate(102 1139 19)"/><ellipse cx="242" cy="20" rx="182" ry="51" fill="rgba(255,255,255,0.09)" transform="rotate(119 242 20)"/><ellipse cx="945" cy="21" rx="146" ry="41" fill="rgba(255,255,255,0.11500000000000002)" transform="rotate(136 945 21)"/><ellipse cx="48" cy="22" rx="128" ry="36" fill="rgba(255,255,255,0.14)" transform="rotate(153 48 22)"/><ellipse cx="751" cy="23" rx="183" ry="51" fill="rgba(255,255,255,0.04)" transform="rotate(170 751 23)"/><ellipse cx="1454" cy="24" rx="210" ry="59" fill="rgba(255,255,255,0.065)" transform="rotate(7 1454 24)"/><ellipse cx="557" cy="25" rx="224" ry="63" fill="rgba(255,255,255,0.09)" transform="rotate(24 557 25)"/><ellipse cx="1260" cy="26" rx="167" ry="47" fill="rgba(255,255,255,0.11500000000000002)" transform="rotate(41 1260 26)"/><ellipse cx="363" cy="27" rx="138" ry="39" fill="rgba(255,255,255,0.14)" transform="rotate(58 363 27)"/><ellipse cx="1066" cy="28" rx="188" ry="53" fill="rgba(255,255,255,0.04)" transform="rotate(75 1066 28)"/><ellipse cx="169" cy="29" rx="149" ry="42" fill="rgba(255,255,255,0.065)" transform="rotate(92 169 29)"/><ellipse cx="872" cy="30" rx="129" ry="36" fill="rgba(255,255,255,0.09)" transform="rotate(109 872 30)"/>
<path d="M0 770Q250 560 470 720t410-50q230-230 430 30t290-20v320H0z" fill="rgba(36,45,68,.22)"/>
<path d="M0 860q320-190 590 0t510-40q280-130 500 20v160H0z" fill="rgba(255,255,255,.1)"/>
<g fill="none" stroke="rgba(248,226,169,.42)" stroke-width="5" opacity=".7"><circle cx="800" cy="500" r="260"/><circle cx="800" cy="500" r="180"/><path d="M800 190v620M490 500h620"/></g>
</svg>