<svg xmlns="http://www.w3.org/2000/svg" width="1200" height="900" viewBox="0 0 1200 900">
<defs><linearGradient id="scene" x1="0" y1="0" x2="1" y2="1"><stop stop-color="hsl(162 46% 70%)"/><stop offset=".55" stop-color="hsl(220 42% 78%)"/><stop offset="1" stop-color="hsl(278 50% 85%)"/></linearGradient><radialGradient id="sun"><stop stop-color="#fff" stop-opacity=".85"/><stop offset="1" stop-color="#fff" stop-opacity="0"/></radialGradient></defs>
<rect width="1200" height="900" fill="url(#scene)"/>
<circle cx="502" cy="362" r="260" fill="url(#sun)"/>
<circle cx="510" cy="486" r="2" fill="#fff" opacity="0.15"/><circle cx="852" cy="540" r="3" fill="#fff" opacity="0.25"/><circle cx="1194" cy="594" r="4" fill="#fff" opacity="0.35"/><circle cx="336" cy="648" r="5" fill="#fff" opacity="0.45000000000000007"/><circle cx="678" cy="702" r="6" fill="#fff" opacity="0.55"/><circle cx="1020" cy="756" r="2" fill="#fff" opacity="0.15"/><circle cx="162" cy="810" r="3" fill="#fff" opacity="0.25"/><circle cx="504" cy="864" r="4" fill="#fff" opacity="0.35"/><circle cx="846" cy="18" r="5" fill="#fff" opacity="0.45000000000000007"/><circle cx="1188" cy="72" r="6" fill="#fff" opacity="0.55"/><circle cx="330" cy="126" r="2" fill="#fff" opacity="0.15"/><circle cx="672" cy="180" r="3" fill="#fff" opacity="0.25"/><circle cx="1014" cy="234" r="4" fill="#fff" opacity="0.35"/><circle cx="156" cy="288" r="5" fill="#fff" opacity="0.45000000000000007"/><circle cx="498" cy="342" r="6" fill="#fff" opacity="0.55"/><circle cx="840" cy="396" r="2" fill="#fff" opacity="0.15"/><circle cx="1182" cy="450" r="3" fill="#fff" opacity="0.25"/><circle cx="324" cy="504" r="4" fill="#fff" opacity="0.35"/><circle cx="666" cy="558" r="5" fill="#fff" opacity="0.45000000000000007"/><circle cx="1008" cy="612" r="6" fill="#fff" opacity="0.55"/><circle cx="150" cy="666" r="2" fill="#fff" opacity="0.15"/><circle cx="492" cy="720" r="3" fill="#fff" opacity="0.25"/><circle cx="834" cy="774" r="4" fill="#fff" opacity="0.35"/><circle cx="1176" cy="828" r="5" fill="#fff" opacity="0.45000000000000007"/><circle cx="318" cy="882" r="6" fill="#fff" opacity="0.55"/><circle cx="660" cy="36" r="2" fill="#fff" opacity="0.15"/><circle cx="1002" cy="90" r="3" fill="#fff" opacity="0.25"/><circle cx="144" cy="144" r="4" fill="#fff" opacity="0.35"/>
<path d="M0 650h1200v250H0z" fill="rgba(45,53,77,.25)"/><path d="M120 600h960v85H120z" fill="rgba(255,255,255,.46)"/><path d="M180 500h840v100H180z" fill="rgba(79,93,122,.35)"/><circle cx="310" cy="720" r="55" fill="rgba(33,37,55,.65)"/><circle cx="890" cy="720" r="55" fill="rgba(33,37,55,.65)"/>
</svg>