<svg xmlns="http://www.w3.org/2000/svg" width="1200" height="900" viewBox="0 0 1200 900">
<defs><linearGradient id="scene" x1="0" y1="0" x2="1" y2="1"><stop stop-color="hsl(30 46% 70%)"/><stop offset=".55" stop-color="hsl(88 42% 78%)"/><stop offset="1" stop-color="hsl(146 50% 85%)"/></linearGradient><radialGradient id="sun"><stop stop-color="#fff" stop-opacity=".85"/><stop offset="1" stop-color="#fff" stop-opacity="0"/></radialGradient></defs>
<rect width="1200" height="900" fill="url(#scene)"/>
<circle cx="830" cy="230" r="260" fill="url(#sun)"/>
<circle cx="1050" cy="450" r="2" fill="#fff" opacity="0.15"/><circle cx="300" cy="600" r="3" fill="#fff" opacity="0.25"/><circle cx="750" cy="750" r="4" fill="#fff" opacity="0.35"/><circle cx="0" cy="0" r="5" fill="#fff" opacity="0.45000000000000007"/><circle cx="450" cy="150" r="6" fill="#fff" opacity="0.55"/><circle cx="900" cy="300" r="2" fill="#fff" opacity="0.15"/><circle cx="150" cy="450" r="3" fill="#fff" opacity="0.25"/><circle cx="600" cy="600" r="4" fill="#fff" opacity="0.35"/><circle cx="1050" cy="750" r="5" fill="#fff" opacity="0.45000000000000007"/><circle cx="300" cy="0" r="6" fill="#fff" opacity="0.55"/><circle cx="750" cy="150" r="2" fill="#fff" opacity="0.15"/><circle cx="0" cy="300" r="3" fill="#fff" opacity="0.25"/><circle cx="450" cy="450" r="4" fill="#fff" opacity="0.35"/><circle cx="900" cy="600" r="5" fill="#fff" opacity="0.45000000000000007"/><circle cx="150" cy="750" r="6" fill="#fff" opacity="0.55"/><circle cx="600" cy="0" r="2" fill="#fff" opacity="0.15"/><circle cx="1050" cy="150" r="3" fill="#fff" opacity="0.25"/><circle cx="300" cy="300" r="4" fill="#fff" opacity="0.35"/><circle cx="750" cy="450" r="5" fill="#fff" opacity="0.45000000000000007"/><circle cx="0" cy="600" r="6" fill="#fff" opacity="0.55"/><circle cx="450" cy="750" r="2" fill="#fff" opacity="0.15"/><circle cx="900" cy="0" r="3" fill="#fff" opacity="0.25"/><circle cx="150" cy="150" r="4" fill="#fff" opacity="0.35"/><circle cx="600" cy="300" r="5" fill="#fff" opacity="0.45000000000000007"/><circle cx="1050" cy="450" r="6" fill="#fff" opacity="0.55"/><circle cx="300" cy="600" r="2" fill="#fff" opacity="0.15"/><circle cx="750" cy="750" r="3" fill="#fff" opacity="0.25"/><circle cx="0" cy="0" r="4" fill="#fff" opacity="0.35"/>
<circle cx="600" cy="470" r="240" fill="none" stroke="rgba(255,236,178,.65)" stroke-width="22"/><path d="M600 190l45 220 220 45-220 45-45 220-45-220-220-45 220-45z" fill="rgba(255,255,255,.34)" stroke="rgba(255,232,173,.55)" stroke-width="10"/>
</svg>