<svg xmlns="http://www.w3.org/2000/svg" width="1200" height="900" viewBox="0 0 1200 900">
<defs><linearGradient id="scene" x1="0" y1="0" x2="1" y2="1"><stop stop-color="hsl(114 46% 70%)"/><stop offset=".55" stop-color="hsl(172 42% 78%)"/><stop offset="1" stop-color="hsl(230 50% 85%)"/></linearGradient><radialGradient id="sun"><stop stop-color="#fff" stop-opacity=".85"/><stop offset="1" stop-color="#fff" stop-opacity="0"/></radialGradient></defs>
<rect width="1200" height="900" fill="url(#scene)"/>
<circle cx="354" cy="254" r="260" fill="url(#sun)"/>
<circle cx="270" cy="702" r="2" fill="#fff" opacity="0.15"/><circle cx="564" cy="480" r="3" fill="#fff" opacity="0.25"/><circle cx="858" cy="258" r="4" fill="#fff" opacity="0.35"/><circle cx="1152" cy="36" r="5" fill="#fff" opacity="0.45000000000000007"/><circle cx="246" cy="714" r="6" fill="#fff" opacity="0.55"/><circle cx="540" cy="492" r="2" fill="#fff" opacity="0.15"/><circle cx="834" cy="270" r="3" fill="#fff" opacity="0.25"/><circle cx="1128" cy="48" r="4" fill="#fff" opacity="0.35"/><circle cx="222" cy="726" r="5" fill="#fff" opacity="0.45000000000000007"/><circle cx="516" cy="504" r="6" fill="#fff" opacity="0.55"/><circle cx="810" cy="282" r="2" fill="#fff" opacity="0.15"/><circle cx="1104" cy="60" r="3" fill="#fff" opacity="0.25"/><circle cx="198" cy="738" r="4" fill="#fff" opacity="0.35"/><circle cx="492" cy="516" r="5" fill="#fff" opacity="0.45000000000000007"/><circle cx="786" cy="294" r="6" fill="#fff" opacity="0.55"/><circle cx="1080" cy="72" r="2" fill="#fff" opacity="0.15"/><circle cx="174" cy="750" r="3" fill="#fff" opacity="0.25"/><circle cx="468" cy="528" r="4" fill="#fff" opacity="0.35"/><circle cx="762" cy="306" r="5" fill="#fff" opacity="0.45000000000000007"/><circle cx="1056" cy="84" r="6" fill="#fff" opacity="0.55"/><circle cx="150" cy="762" r="2" fill="#fff" opacity="0.15"/><circle cx="444" cy="540" r="3" fill="#fff" opacity="0.25"/><circle cx="738" cy="318" r="4" fill="#fff" opacity="0.35"/><circle cx="1032" cy="96" r="5" fill="#fff" opacity="0.45000000000000007"/><circle cx="126" cy="774" r="6" fill="#fff" opacity="0.55"/><circle cx="420" cy="552" r="2" fill="#fff" opacity="0.15"/><circle cx="714" cy="330" r="3" fill="#fff" opacity="0.25"/><circle cx="1008" cy="108" r="4" fill="#fff" opacity="0.35"/>
<path d="M0 650h1200v250H0z" fill="rgba(45,53,77,.25)"/><path d="M120 600h960v85H120z" fill="rgba(255,255,255,.46)"/><path d="M180 500h840v100H180z" fill="rgba(79,93,122,.35)"/><circle cx="310" cy="720" r="55" fill="rgba(33,37,55,.65)"/><circle cx="890" cy="720" r="55" fill="rgba(33,37,55,.65)"/>
</svg>